<?xml version="1.0" encoding="iso-8859-1"?>
<!-- Generator: Adobe Illustrator 19.0.0, SVG Export Plug-In . SVG Version: 6.00 Build 0)  -->
<svg version="1.1" id="Layer_1" xmlns="http://www.w3.org/2000/svg" xmlns:xlink="http://www.w3.org/1999/xlink" x="0px" y="0px"
	 viewBox="0 0 512 512" style="enable-background:new 0 0 512 512;" xml:space="preserve">
<g>
	<g>
		<g>
			<path d="M487.084,94.833L448,36.207V21.333C448,9.551,438.449,0,426.667,0H85.333C73.551,0,64,9.551,64,21.333v14.874
				L24.916,94.833c-2.336,3.504-3.583,7.622-3.583,11.834v42.667c0,18.881,8.255,35.891,21.333,47.623v293.71
				C42.667,502.449,52.218,512,64,512h192h106.667H448c11.782,0,21.333-9.551,21.333-21.333v-293.71
				c13.078-11.732,21.333-28.742,21.333-47.623v-42.667C490.667,102.455,489.42,98.337,487.084,94.833z M64,113.126L103.084,54.5
				c2.336-3.504,3.583-7.622,3.583-11.834h298.667c0,4.212,1.247,8.329,3.583,11.834L448,113.126v36.207
				c0,7.182-3.653,13.584-9.176,17.459c-0.534,0.257-1.064,0.53-1.589,0.837c-2.897,1.693-5.869,2.675-8.861,2.949
				c-0.565,0.046-1.132,0.088-1.708,0.088c-11.685,0-21.333-9.649-21.333-21.333v-42.667h-42.667v42.667
				c0,11.685-9.649,21.333-21.333,21.333c-11.685,0-21.333-9.649-21.333-21.333v-42.667h-42.667v42.667
				c0,11.685-9.649,21.333-21.333,21.333c-11.685,0-21.333-9.649-21.333-21.333v-42.667H192v42.667
				c0,11.685-9.649,21.333-21.333,21.333c-11.685,0-21.333-9.649-21.333-21.333v-42.667h-42.667v42.667
				c0,11.685-9.649,21.333-21.333,21.333c-0.576,0-1.143-0.042-1.708-0.088c-2.991-0.274-5.964-1.256-8.861-2.949
				c-0.525-0.307-1.056-0.58-1.589-0.837C67.653,162.917,64,156.515,64,149.333V113.126z M277.333,469.333V320h64v149.333H277.333z
				 M426.667,469.333H384V298.667c0-11.782-9.551-21.333-21.333-21.333H256c-11.782,0-21.333,9.551-21.333,21.333v170.667H85.333
				v-256c16.365,0,31.33-6.197,42.667-16.365c11.337,10.168,26.302,16.365,42.667,16.365s31.33-6.197,42.667-16.365
				c11.337,10.168,26.302,16.365,42.667,16.365s31.33-6.197,42.667-16.365c11.337,10.168,26.302,16.365,42.667,16.365
				s31.33-6.197,42.667-16.365c11.337,10.168,26.302,16.365,42.667,16.365V469.333z"/>
			<rect x="128" y="298.667" width="64" height="85.333"/>
		</g>
	</g>
</g>
<g>
</g>
<g>
</g>
<g>
</g>
<g>
</g>
<g>
</g>
<g>
</g>
<g>
</g>
<g>
</g>
<g>
</g>
<g>
</g>
<g>
</g>
<g>
</g>
<g>
</g>
<g>
</g>
<g>
</g>
</svg>
